<svg viewBox="-24.5625 205.6875 1391.8749999999995 2961.900000000001" xmlns="http://www.w3.org/2000/svg" overflow="visible" xmlns:xlink="http://www.w3.org/1999/xlink" width="1391.8749999999995px" height="2961.900000000001px"><g id="Master/Character/Standing" stroke="none" stroke-width="1" fill="none" fill-rule="evenodd"><g id="Standing" transform="translate(-121.000000, 634.000000) scale(1 1)"><g id="Standing/Robot Dance 3" stroke="none" stroke-width="1" fill="none" fill-rule="evenodd"><path d="M354.96866,903.913804 C355.137666,915.405271 356.289121,941.794371 359.172219,952.918661 C327.053121,901.418626 278.925335,845.131094 271.606085,782.054179 C273.887163,781.429782 284.008235,780.496131 285.775296,779.169777 C302.392863,786.892279 299.248961,763.12492 301.705045,752.132185 C308.337272,728.85865 322.271543,705.966037 328.32575,682.538366 C344.240294,675.654285 312.281201,672.737484 307.638043,672.60102 C326.941702,651.10152 335.821006,621.545721 349.565476,596.465753 C369.761166,553.841785 387.848784,510.269439 403.999336,466.01379 C407.529457,493.743521 408.162478,521.773669 406.011405,549.656554 C399.370178,669.089275 354.518645,783.92639 354.96866,903.913804 Z M1469.71793,691.759922 C1459.72559,693.439708 1443.07356,695.030649 1433.10121,695.847471 C1446.19066,688.04152 1484.87721,673.170439 1460.49738,659.805779 C1452.98012,657.059804 1444.91356,660.976926 1437.33331,662.188415 C1405.85223,667.371111 1366.98035,667.097638 1335.13226,664.486164 C1346.74166,654.954284 1362.02721,641.226025 1373.3576,631.361329 C1379.37881,626.119728 1385.21704,624.132562 1378.44381,616.305994 C1366.5054,605.183667 1345.1555,613.374467 1331.35203,618.262636 C1293.27473,639.60211 1250.28112,662.749984 1209.41373,679.16889 C1208.98571,673.441319 1209.25013,666.035921 1203.72994,662.188415 C1187.53639,654.554271 1175.61371,656.785805 1158.38312,654.753568 C1138.30043,651.742518 1120.44982,648.317739 1100.56114,643.004469 C1087.5527,633.079886 1079.62063,603.811992 1058.81992,607.083207 C1077.24255,560.705981 1049.16338,512.32033 1038.61502,467.912508 C1025.45157,422.465988 1018.53534,375.268013 1018.34733,328.014078 C1018.21833,252.35889 974.41283,194.309554 911.116667,155.488913 C886.163814,138.632142 869.407581,97.6305686 838.514525,89.41817 C834.585391,74.3373984 834.347043,67.7129511 830.896925,52.5173139 C829.164866,48.1524216 827.877822,24.4675304 823.521673,25.273553 C818.718509,1.81250244 794.238673,-7.59665808 773.055949,-12.5103526 C745.514007,-18.2202522 707.078694,-25.1367313 682.319848,-9.02511474 C675.148603,-3.05603127 671.998495,6.93923827 671.472477,15.8683195 C668.721383,27.7583804 662.999151,40.0756918 656.328923,50.3919959 C644.945542,46.5445245 651.387765,39.3745577 640.129147,37.7052 C537.326787,22.4623077 423.215378,97.9081213 356.514713,171.508244 C235.609581,295.709359 139.02228,465.263067 154.83282,642.27879 C150.580675,641.650466 131.734031,638.695376 132.003126,644.652679 C132.929072,670.557323 137.693235,692.163513 139.00828,718.04754 C137.701235,752.338354 173.313452,756.469588 199.039331,764.926444 C197.455277,864.413787 233.585512,963.926655 290.135445,1045.70703 C303.873914,1061.79901 324.488619,1117.64098 349.565476,1095.39632 C352.520577,1091.93858 329.602492,1067.98604 325.525353,1062.06801 C311.602877,1044.53481 274.724191,957.722931 300.787809,940.384118 C306.582007,959.123899 362.688384,1049.23364 372.689726,998.088018 C385.97318,1005.8007 407.92347,1011.06376 423.803013,1010.26657 C453.655033,1026.44397 482.703026,1043.91434 511.371005,1062.06801 C524.724462,1088.3035 544.311131,1113.50128 560.720692,1138.69023 C447.155811,1401.11097 336.307913,1833.02789 190.163918,2080.19605 C177.421483,2096.33712 247.520255,2123.77134 259.901678,2129.69429 C236.223868,2168.1556 233.259391,2212.72443 215.245776,2254.13986 C211.814658,2253.58517 208.35354,2254.31461 205.258434,2255.97182 C183.037675,2271.02608 174.652388,2324.91866 173.385345,2351.4909 C174.41138,2363.34463 170.01923,2381.27054 179.605558,2389.99934 C178.265512,2391.45038 177.265478,2393.22245 176.553453,2395.03183 C169.807223,2400.28521 170.638251,2411.89449 174.244374,2419.09273 C186.932808,2445.43818 279.676978,2442.99361 309.774006,2448.62889 C416.38365,2457.66302 505.863323,2459.08559 612.458966,2449.21108 C625.542413,2446.47001 615.648075,2426.04946 609.187854,2420.51039 C612.171956,2418.69414 614.080021,2415.37776 612.773977,2411.11694 C588.541148,2341.78721 500.956087,2346.47804 447.958276,2309.45402 C461.893752,2301.39085 452.899444,2303.96403 444.144145,2307.09977 C434.851828,2301.25831 425.812519,2294.68446 417.439233,2287.42143 C423.870452,2283.44924 420.698344,2280.825 413.741106,2284.15119 C402.775731,2275.35367 394.23544,2261.75633 380.266962,2257.49256 C366.585495,2254.13986 366.585495,2248.28664 366.585495,2244.59718 C374.727773,2211.84478 383.621974,2178.2569 388.19313,2145.04111 C393.069297,2152.23543 435.141838,2094.58861 444.144145,2080.19605 C479.122341,2024.77684 479.02776,1970.1657 503.505596,1909.89759 C553.770314,1778.65237 656.734973,1503.57892 719.527119,1378.05636 C866.44614,1617.55897 794.886695,1941.47939 885.519792,2196.87173 C889.54793,2204.54416 897.122189,2233.32044 907.612547,2225.0187 C911.689687,2225.97395 916.024835,2226.48741 919.907967,2227.0372 C918.786929,2254.95641 916.695858,2282.801 912.058699,2310.42765 C907.739552,2311.56943 904.069426,2313.83729 902.167361,2317.80359 C894.893113,2312.45989 880.965637,2391.29499 879.773596,2399.32576 C879.755595,2409.68428 870.82929,2432.74968 878.981569,2438.90628 C867.236167,2443.71394 865.316102,2461.48571 873.577384,2470.62391 C898.106222,2503.60506 1017.67131,2494.54148 1061.78082,2500.06975 C1117.56072,2498.68547 1350.91121,2519.57825 1367.11276,2466.6419 C1370.33387,2454.55745 1364.81269,2439.30193 1353.5823,2434.65134 C1358.07645,2424.15636 1347.31409,2414.02364 1340.73086,2406.65948 C1301.90754,2366.26116 1242.21133,2359.89731 1190.52156,2342.31502 C1192.44863,2340.33972 1123.04824,2304.7658 1108.00273,2295.9722 C1108.99576,2284.02618 1084.18314,2296.00263 1084.11414,2295.9722 C1072.28373,2275.05488 1063.90347,2242.50991 1055.97119,2219.9452 C1070.61069,2215.40555 1105.88332,2211.37228 1112.42055,2196.87173 C1133.43126,2189.82173 1112.35587,2159.33942 1108.00273,2145.04111 C984.841516,1836.76053 1101.68918,1447.91021 919.907967,1156.94194 C953.229106,1137.85167 991.456637,1096.07215 958.542513,1061.02342 C951.955287,1052.59798 935.842665,1026.36631 936.107674,1030.9462 C929.987274,1005.97034 916.317654,962.948782 912.058699,937.694104 C896.421576,844.969361 906.670714,758.13012 919.907967,664.486164 C938.285596,734.94982 1001.62676,793.655604 1066.06296,825.849384 C1091.21082,836.229502 1124.41796,857.65537 1152.0269,850.895972 C1176.94475,843.521013 1222.1993,792.347903 1227.53248,767.769613 C1300.17196,776.410057 1375.59354,769.474925 1445.01291,746.632381 C1453.92422,743.260046 1464.46958,743.545504 1461.71448,730.8936 C1458.96639,720.156122 1439.37152,722.894662 1430.94623,724.888611 C1443.82467,717.747309 1477.25719,715.877768 1477.00971,697.205729 C1476.56616,693.314043 1473.69406,691.091345 1469.71793,691.759922 Z" id="Skin" fill="#ffdbb4"/><path d="M511.926888,1069.70886 L524.954375,1078.57706 L529.570273,1081.70524 C559.610329,1102.00549 585.39628,1118.27571 610.887193,1132.63128 L613.478626,1134.08465 L616.068951,1135.52531 C651.425255,1155.10687 684.72651,1170.01269 716.980693,1180.09738 C792.581935,1203.73509 860.56845,1200.22863 922.091629,1164.16404 L923.953991,1163.0612 L926.884315,1161.30839 L929.402067,1167.10509 L931.785279,1172.62172 C944.873138,1203.01817 954.348117,1226.76395 962.496329,1250.28185 L962.860295,1251.33476 L963.545214,1253.32937 C987.251821,1319.09016 1002.85208,1389.58441 1012.94828,1470.35405 L1013.62226,1475.81187 C1020.55447,1532.6507 1024.17075,1584.80146 1028.57706,1677.75098 L1029.00149,1686.77654 L1031.04085,1730.72831 C1032.79943,1768.01985 1034.01502,1791.05553 1035.54089,1814.79645 L1035.92932,1820.75503 L1036.56673,1830.20798 L1036.89043,1834.8485 C1039.82785,1876.44046 1043.42092,1913.40396 1048.12077,1948.53198 L1048.74675,1953.1518 C1060.70156,2040.26581 1079.6765,2115.72608 1108.95598,2185.61875 L1109.84639,2187.73501 L1110.71001,2189.77869 L1109.00888,2191.20298 C1108.30851,2191.78938 1107.76818,2192.86733 1107.67263,2193.98151 L1107.65953,2194.20469 L1107.57688,2196.84315 L1104.94935,2197.09688 C1098.33449,2197.73563 1092.15855,2199.20791 1081.7996,2202.32831 L1075.60608,2204.20726 L1073.22028,2204.92025 C1067.14351,2206.72068 1063.25021,2207.73768 1059.1518,2208.54029 L1058.38036,2208.68841 L1057.081,2208.925 L1054.6968,2209.47427 L1052.28285,2210.01619 C1013.23086,2218.66744 972.798348,2222.00933 916.281805,2222.78236 L912.101358,2222.83467 L911.646,2222.648 L911.609595,2222.63968 L911.454566,2222.61484 C911.140839,2222.5775 910.65664,2222.58566 909.867151,2222.64648 L909.405433,2222.68491 L905.25386,2223.07205 L904.175201,2218.87073 C901.604324,2208.95693 898.962417,2199.8695 894.530403,2185.50407 L893.745119,2182.96387 L888.330392,2165.56508 C879.606659,2137.38809 875.462864,2122.35562 872.073277,2105.03863 L871.74396,2103.33676 L871.398013,2101.50665 L871.380064,2101.39994 C862.373936,2041.24225 854.982578,1984.32799 847.958945,1922.99019 L847.034691,1914.86357 C844.792777,1894.94949 840.840278,1858.25451 837.494805,1826.98742 L831.675225,1772.40092 L831.221965,1768.25268 C819.017202,1657.38441 808.436051,1595.27242 788.454221,1530.37271 C773.228705,1480.9212 752.764093,1432.85451 724.563435,1381.13459 L723.515424,1379.21736 L723.168,1378.586 L722.249312,1379.33163 C713.272193,1386.63584 707.969619,1391.57413 706.706424,1393.66487 L706.646632,1393.76704 L705.09416,1396.70745 L703.780136,1399.16951 L695.9048,1413.75391 C695.080435,1415.28991 694.364387,1416.63367 693.697964,1417.89654 L692.47086,1420.23789 L690.714732,1423.64682 L689.451143,1426.13875 L688.581439,1427.87055 L687.59718,1429.84458 L685.550088,1432.90894 L684.63861,1434.28032 L682.906189,1436.90195 L682.049757,1438.22749 C668.694898,1459.02687 658.236752,1481.43813 644.47152,1516.87175 L642.695813,1521.46681 L639.877854,1528.85344 L631.447134,1551.16407 L627.395118,1561.82915 L625.454389,1566.87829 C623.555036,1571.7982 621.769675,1576.35544 620.007105,1580.7752 L619.127296,1582.97467 L617.689179,1586.54074 L615.442688,1592.06635 L613.877916,1595.93116 C595.86594,1640.5146 577.257071,1689.8796 557.323599,1745.49198 L553.505555,1756.17386 L550.726974,1763.98424 C539.598054,1795.32809 528.250556,1828.02142 515.120476,1866.43175 L511.799913,1876.15597 L506.954385,1890.38005 L473.947386,1987.574 L468.455173,2003.68501 L463.532236,2018.06171 L462.106095,2021.13993 L460.712983,2024.12368 C444.02949,2059.71638 428.532504,2087.71097 410.766317,2112.91801 L410.145,2113.796 L409.793396,2114.44618 L409.465093,2115.02028 C408.236537,2117.11303 406.71527,2119.10164 404.235733,2121.99944 L403.891613,2122.40033 L401.085729,2125.63565 L400.455237,2126.37873 C395.752117,2131.96423 394.032434,2135.03302 393.808831,2138.79067 L393.746585,2140.22085 L388.838911,2145.04029 L386.903446,2144.02598 L386.475325,2143.80984 C382.595319,2141.92182 376.090595,2140.58955 365.328236,2139.2404 L364.09158,2139.08756 L361.22236,2138.74781 L351.90653,2137.69393 C343.634797,2136.73256 338.979455,2136.00788 335.527149,2134.99857 L335.083472,2134.86526 L334.627,2134.72 L333.208725,2134.44012 C287.661576,2125.34967 243.716591,2108.98677 203.527312,2086.12359 L202.11043,2085.31395 L200.696688,2084.49893 L198.297601,2083.10973 L200.85755,2077.75106 C207.683355,2063.42797 214.590718,2048.57859 221.585655,2033.19813 C266.132485,1935.2486 312.506906,1820.06187 367.983767,1672.36584 L369.667678,1667.88024 L373.927063,1656.51067 L377.408555,1647.17102 C405.570783,1571.45669 478.51982,1371.9913 504.347873,1302.22651 L508.857971,1290.07799 L510.088267,1286.783 L529.139756,1239.75753 L530.283577,1236.97379 C530.870249,1235.552 531.481705,1234.07884 532.129839,1232.52495 L533.833473,1228.45511 L540.025179,1213.75044 L542.588082,1207.61365 C547.514566,1195.75739 550.654518,1187.79256 553.632167,1179.47722 L553.996077,1178.45697 L555.082064,1175.36549 C556.213832,1172.1069 556.057206,1161.76633 554.288322,1151.00836 L554.112096,1149.96619 L553.922698,1148.90618 C551.204368,1134.10033 545.968334,1120.55714 538.287352,1110.54598 L538.013,1110.193 L537.916326,1110.10867 L535.066939,1105.95289 C528.933988,1096.9735 524.383547,1090.06036 520.17875,1083.23883 L519.829124,1082.67054 L511.926888,1069.70886 Z" id="Pants" fill="#FFCF77"/><path d="M1105.87547,2289.02761 C1110.34565,2293.4575 1144.65962,2319.8052 1191,2342 C1219.32237,2355.56505 1253.83515,2362.57366 1283,2376 C1314.46717,2390.48624 1340.08607,2411.40613 1355.73856,2426.53633 L1371.85158,2469.61085 C1369.40183,2485.22622 1296.95435,2495.12017 1220.91948,2497.64063 C1109.53533,2501.33287 971.139203,2490.63978 957.915472,2489.22961 C935.103472,2487.13461 864.026472,2489.47061 877.127472,2452.22361 C880.849794,2453.40206 882.025966,2429.45303 884.642017,2427.1444 L886.898404,2408.88878 C893.370249,2356.79533 897.166272,2328.76261 898.286472,2324.79061 C898.575472,2324.33561 898.874472,2323.88861 899.204472,2323.46461 C903.057472,2318.48361 909.574472,2317.08761 915.578472,2317.45461 C916.065472,2317.48461 916.555472,2317.54461 917.048472,2317.61961 C917.864472,2318.04461 918.652472,2318.54661 919.400472,2319.14461 L920.029138,2319.23105 C920.134361,2319.24583 920.240472,2319.26161 920.348472,2319.27961 C920.564472,2319.31461 920.757472,2319.37461 920.938472,2319.44561 C921.088472,2319.19661 921.219472,2318.92561 921.351472,2318.65561 C925.069472,2319.79261 928.853472,2321.32561 932.480472,2321.49961 L935.103048,2322.65428 L938.497525,2324.16773 L948.299128,2328.57544 L950.490413,2329.5504 C963.124342,2335.09464 994.834364,2346.989 1024,2343 C1052.2436,2339.1371 1075.96257,2311.06453 1084.69647,2303.67161 C1091.04147,2297.84661 1099.96047,2295.13161 1105.87547,2289.02761 Z M376.616472,2255.42961 C379.392036,2256.16228 391.655673,2263.61644 402.219944,2273.71761 C412.200896,2283.26103 420.128049,2295.16721 435,2306 C456.480128,2321.64621 538.973439,2351.52345 583.952467,2380.2097 C607.273935,2395.08342 622.142983,2443.6032 622.530472,2445.84361 C480.992472,2453.96861 312.185,2452.381 172,2430 C169.334419,2429.22517 170.4717,2367.60179 176.806446,2326.24689 L177,2325 C181.569485,2295.95264 186.763907,2279.98179 187.08038,2279.2996 L187.43832,2278.69829 C193.257378,2269.20385 209.175852,2258.99833 219.484472,2265.94261 L219.581295,2266.02329 L221.510499,2267.76799 C230.719367,2276.03687 269.199692,2309.17233 295.915472,2301.12761 C304.663472,2298.28661 311.926472,2292.60661 319.536472,2287.65361 C340.014472,2274.42661 353.512472,2263.38561 376.616472,2255.42961 Z M380.705932,2253.6 C382.585969,2254.81214 384.374688,2256.17784 386.102673,2257.64207 C383.853043,2256.29067 381.468918,2255.17171 378.901472,2254.37361 C379.461872,2254.16901 380.004398,2253.93946 380.526625,2253.68806 L380.705932,2253.6 Z" id="Shoes" fill="#FFF"/><path d="M627.544789,32.9283818 L629.165016,33.1296417 C635.473859,33.9529644 640.755687,35.3210655 645.24457,37.5839764 L645.759012,37.8490725 L647.813016,38.9308741 L648.312103,41.1980608 C649.878139,48.312028 655.706143,64.3579538 658.851022,70.6542712 L659.016891,70.9821408 L659.122785,71.1876714 L659.493848,71.8720886 L660.27238,73.6609517 C675.550949,108.530334 696.187112,141.676276 721.335633,172.095919 L722.573562,173.586782 L723.357474,174.63976 C746.246268,205.192751 775.354668,227.137417 799.570019,227.723736 L800.302308,227.734953 L801.591342,227.724853 C815.436248,227.407003 827.778429,220.127165 838.430511,204.678211 C845.720353,193.94245 849.87431,180.596204 851.430659,164.592626 C852.670692,151.841652 852.274352,138.23077 850.58319,121.165963 L850.471064,120.048117 L850.195577,117.399168 L850.002527,115.609405 C849.919541,114.84894 849.778917,114.679114 849.502179,114.65529 L849.440766,114.652258 L849.331727,114.651653 L849.266901,114.654734 L849.206635,114.660768 L849.096484,114.680241 L843.971504,116.745513 L842.046219,110.899757 L841.637325,109.688807 L841.183351,108.368517 L839.336581,103.080204 L838.751393,101.371546 L838.28602,99.9780098 C837.622985,97.9643047 837.073464,96.1614204 836.586225,94.3703279 L836.40633,93.6988322 L833.747523,83.2568278 L842.631331,86.4821595 C843.09895,86.6519317 843.562224,86.828545 844.021397,87.012068 L844.707109,87.2925433 L845.353799,87.5631518 L845.901137,88.0011693 C847.782454,89.5067305 849.675793,90.728089 853.023482,92.6430323 L853.449622,92.8860834 L857.8449,95.3688977 L858.822799,96.1989581 L859.487244,96.7778357 C863.548815,100.358529 866.991267,104.185292 872.252262,110.673602 L872.682862,111.205562 L876.498495,115.95633 L878.306325,118.179568 L879.352422,119.900842 L880.136033,121.217465 L880.576165,121.964905 L883.060806,126.21921 L884.227867,128.196732 C887.197943,133.191131 889.094526,136.044403 891.434795,138.936354 L891.879165,139.47958 L892.20068,139.864564 C896.078959,144.463112 900.901558,148.561204 908.115646,153.703326 L909.376043,154.595348 L911.254763,155.907543 L911.951333,156.495466 C913.642704,157.90261 915.261773,159.087653 916.843879,160.064273 L917.299631,160.339382 L917.85293,160.539752 L920.25238,162.252984 L922.091807,163.579755 C935.119239,173.022109 944.849454,181.078828 953.742727,190.144973 C959.945422,196.469346 965.71913,203.035642 971.019269,209.816253 L972.072969,211.175224 C972.953305,212.319529 973.76322,213.402408 974.703266,214.693245 L975.694117,216.063378 L980.425695,222.700551 L981.704725,224.467792 C983.519381,226.954533 984.904211,228.750733 986.367843,230.504524 L986.612598,230.79654 L987.28,231.581 L987.945517,232.135539 L988.407337,233.012747 C993.385279,242.468138 997.237335,252.26631 999.947367,262.613111 L1000.196,263.581 L1000.48627,264.413103 C1004.09702,274.905388 1006.42646,286.009511 1007.84075,298.500287 L1007.97914,299.754016 L1008.21316,302.029034 C1008.97548,309.743189 1009.3525,316.531277 1009.66724,327.594744 L1009.76808,331.360614 L1010.11596,346.38321 L1010.21058,349.848292 C1010.62061,363.89875 1011.24099,373.237565 1012.54657,382.763694 L1012.62573,383.335526 L1012.78323,384.441203 L1012.80243,384.589079 C1017.81237,428.255496 1028.0146,470.916117 1043.26279,511.832336 L1043.98125,513.749003 L1044.51638,515.1629 L1048.41937,525.35356 L1049.3135,527.717276 C1053.46728,538.766286 1055.95152,546.403449 1057.81653,554.487072 C1060.39673,565.670542 1061.16307,575.879605 1059.81786,585.668807 L1059.70563,586.448382 L1059.64254,586.963389 C1058.88488,593.183886 1058.74517,599.032363 1059.13949,603.361564 L1059.194,603.92 L1060.62832,603.930132 C1065.33044,603.964272 1069.16893,605.476046 1072.22551,608.403745 L1072.51887,608.691489 L1072.80736,608.988061 C1075.12185,611.423209 1076.77149,614.384488 1078.68518,619.00055 L1079.13706,620.127398 C1079.68912,621.5332 1081.08749,625.084048 1082.11291,627.60181 L1082.84393,629.366803 L1083.32077,630.457011 C1084.00911,632.000883 1089.20582,638.114041 1098,642 C1101.42724,643.514425 1107.80129,645.053494 1117.12214,646.617208 L1118.02501,646.982394 C1130.63171,652.03178 1141.9336,654.451372 1164.15608,657.459027 L1168.24304,658.003038 L1177.44837,659.196941 C1186.69886,660.414845 1192.54086,661.293424 1198.5348,662.429866 L1200.25457,662.762096 L1212.35971,665.181561 L1203.04908,671.890566 C1187.04911,683.419737 1128.94137,745.672538 1126,767 C1122.50622,792.332874 1176.36638,775.599364 1183.85646,767.367618 L1184.69712,766.43757 L1185.51353,765.522343 L1188.01564,762.679236 L1190.48019,762.848791 L1192.91599,763.023858 C1197.81702,763.390957 1202.90409,763.860208 1208.34583,764.43831 L1217.80976,765.462526 L1211.10689,775.750105 L1209.3534,778.422457 L1208.15761,780.232593 L1206.93615,782.069541 L1205.69287,783.92532 C1188.4184,809.604825 1173.81183,826.387062 1155.71521,838.832151 L1155.10563,839.247382 L1154.766,839.494328 C1150.20504,842.719438 1145.18783,844.365355 1139.69571,844.632346 L1139.14492,844.654456 L1138.59095,844.667417 L1138.15095,844.67084 C1135.11901,844.673954 1131.98664,844.275219 1128.6358,843.516162 L1127.86714,843.337466 C1124.80862,842.607879 1121.90181,841.689102 1117.63567,840.165107 L1116.53994,839.771259 L1112.97756,838.472722 L1110.22404,837.48651 L1109.38075,837.193786 C1097.2841,832.866064 1085.47712,827.969146 1073.99646,822.512765 C1000.18082,787.80444 943.929535,735.261622 920.629707,671.224275 L919.933753,669.280237 L919.174,667.083 L907.106,669.716 L906.784666,672.487551 C892.197753,800.081176 895.092706,901.563023 921.183356,996.118636 L921.981088,998.981857 L922.728,1001.612 L923.979639,1004.63403 C927.745547,1013.67112 931.851332,1023.0011 937.026587,1034.37391 L939.169,1039.065 L940.660443,1039.51874 L941.606002,1041.52778 C942.803309,1044.07171 944.182822,1046.5695 945.741222,1049.02003 L946.11991,1049.60878 C947.699396,1052.03573 949.329361,1054.17652 952.143814,1057.57053 L952.842606,1058.40995 L957.004109,1063.36048 L957.908506,1064.45447 C958.096479,1064.68373 958.277631,1064.90603 958.455657,1065.12588 L958.984054,1065.78267 L959.864548,1066.8952 C960.27183,1067.41535 960.653656,1067.91203 961.01894,1068.39785 L961.554207,1069.11721 L962.109177,1070.09413 C964.381794,1074.14171 966.04921,1077.76331 967.233513,1081.45238 L967.449938,1082.145 L967.557902,1082.50022 L967.612219,1082.86748 C970.801538,1104.43233 961.501632,1123.70039 942.578968,1140.47308 C928.464142,1152.98419 909.725077,1163.52267 888.589293,1172.13992 L887.36519,1172.63431 C860.554165,1182.71166 833.707239,1187.84651 806.496322,1188.39281 L805.135471,1188.4163 L801.689332,1188.44121 C760.756663,1188.44121 719.504043,1178.24091 674.680991,1158.58334 L672.690663,1157.70614 C640.902955,1143.6267 611.735476,1127.35485 564.788959,1098.58848 L561.831467,1096.77421 L555.516483,1092.88756 L538.207414,1082.19641 L537.833,1081.339 L537.016279,1080.68197 L536.470757,1080.25746 C533.093913,1077.66465 529.436053,1075.50583 523.035379,1072.15716 L521.973001,1071.60345 L518.853534,1069.99309 L515.272636,1068.12745 L512.729345,1066.58497 L508.904036,1064.27453 C495.04248,1055.92438 482.953935,1048.89004 471.406622,1042.50592 L470.358323,1041.92732 L467.463198,1040.33953 L467.298319,1040.24543 C460.352998,1036.10476 453.508876,1032.0998 446.739124,1028.2176 L444.015396,1026.65996 L441.706616,1025.06275 L439.651368,1023.65057 L437.582619,1022.24291 L436.01863,1021.19063 C426.484736,1014.81183 418.957938,1010.45416 411.167032,1007.04096 C403.275674,1003.5846 396.546252,1001.30739 390.247173,1000.27536 L389.597049,1000.17304 L388.583226,1000.02007 L387.711427,999.480437 C384.029754,997.201523 380.744969,994.758392 377.802757,992.054512 C370.868201,985.681743 366.825498,978.03406 364.886555,968.665593 L364.763077,968.052162 L364.373513,966.061281 L365.481239,964.361777 C365.665912,964.078447 365.840976,962.969691 365.917149,960.729218 L365.934081,960.145345 L365.977855,958.387356 L366.004529,957.625119 C366.092396,955.435726 366.257774,954.091563 366.687193,952.765002 L366.797,952.441 L366.894205,951.659664 C368.22489,940.76012 368.973489,931.18628 369.863142,914.608483 L370.046259,911.137554 L370.990796,892.355932 C371.49363,882.71838 371.935468,875.660335 372.491544,868.888588 L372.681374,866.638797 L372.966812,863.459563 L373.23351,860.290215 C376.1012,827.013153 380.683363,798.979935 391.80467,741.391691 L397.618303,711.353094 C400.682947,695.374619 402.72845,684.271541 404.614125,673.243684 L405.3788,668.724312 L406.501119,661.920632 L407.062332,658.426513 C412.86542,621.917538 415.843775,591.01052 415.921723,561.445972 C416.012438,527.039418 412.067099,495.170871 403.430988,464.652098 L403.002477,463.152257 L402.838,462.588 L393.842019,471.206925 C355.914862,549.98223 327.836431,607.072224 309.606724,642.476906 L308.310631,644.986382 L308.05616,645.613064 C306.839925,648.774273 306.573588,657.031997 307.478593,665.36686 L307.588228,666.328631 L307.710702,667.30748 L307.857633,668.377921 C308.495411,672.815289 309.412641,676.680139 310.471053,679.351833 C310.809717,680.206708 311.145708,680.893154 311.447357,681.386451 L311.558805,681.562335 L311.632,681.669 L312.187323,681.668501 C313.089089,681.664759 313.988891,681.656606 314.885506,681.644059 L316.227882,681.621945 L318.23047,681.576445 L330.124543,681.227076 L323.923991,689.522502 C306.047411,713.438734 292.332644,741.494972 284.053937,770.833951 L283.69223,772.129141 L282.23452,777.457586 L277.554373,777.015974 L276.710528,776.947593 L274.110806,776.749137 L271.03458,776.464172 L270.05,774.918 L268.206919,776.069096 L264.852472,775.427407 L262.150583,774.89503 C241.288335,770.717242 222.014888,765.281973 189.64496,754.992199 L186.471009,753.981139 L174.452673,750.130217 L168.016509,748.072524 L167.081847,747.753452 L166.250762,747.459829 L165.458542,747.170117 C156.349031,743.775488 151.150975,739.271682 148.60722,730.899381 L148.416586,730.250032 L148.230992,729.281067 L139.549092,683.651734 L138.134266,676.367198 C136.604552,668.541938 135.203712,661.553494 133.810006,654.814403 L132.764161,649.79766 L130.936631,641.171849 L139.904551,640.406067 L140.959463,640.30852 C143.694568,640.045068 145.817096,639.752168 147.599936,639.362029 L147.995,639.272 L148.07765,637.184942 L148.157673,635.337862 C148.255936,633.156621 148.371798,630.879851 148.509832,628.471535 L148.633683,626.37421 L148.822886,623.375926 C149.875904,607.271533 151.614489,589.528877 154.240092,570.351419 C161.812526,515.042217 175.023586,459.815285 195.347289,408.169076 C210.725687,369.089783 234.571281,328.623131 265.406683,287.088291 C289.871764,254.134181 317.410714,222.19255 348.148481,189.895137 C387.945036,147.449147 419.538228,118.123732 453.598563,94.2083483 C495.78265,64.5888914 538.382655,46.4443468 583.724863,40.7761505 L584.893,40.633 L586.776298,40.2638567 C589.416651,39.7556745 592.012821,39.3014899 595.555129,38.7238877 L596.190265,38.6206406 L608.022646,36.7400651 L611.244989,36.2110038 C615.494186,35.5004888 618.718519,34.9018442 621.874197,34.2280023 L623.225214,33.9340636 L624.686035,33.6043606 L627.544789,32.9283818 Z" id="Top" fill="#9DDADB"/><path d="M671.724726,-0.0018 C672.829726,0.4462 673.583726,2.1272 674.030726,4.6532 C675.260726,5.0372 676.314726,5.9462 676.631726,7.3152 C677.563874,11.3413481 676.474513,15.5390464 675.634424,19.5520063 L675.538726,20.0142 C674.743726,23.8992 673.771726,27.7602 672.583726,31.5462 L672.410064,32.505041 C669.518601,48.1527108 663.944126,63.03062 657.397726,60.5032 L658.910273,63.2586039 C684.597266,109.898169 757.970866,235.12692 815.258726,217.2772 C848.618726,203.9002 848.141726,160.4162 845.702726,130.1532 C820.932726,145.3532 816.298726,28.9972 821.376726,16.1392 C825.419726,13.1642 827.369726,39.9302 828.873726,43.6202 C832.155726,58.3022 836.180726,72.7952 839.959726,87.3552 C847.946726,88.9372 855.500726,92.1222 862.179726,96.6872 C862.497726,96.8702 862.825726,97.0362 863.137726,97.2262 C867.145726,99.6662 870.272726,102.7782 873.060726,106.2252 C876.211726,109.7522 878.906726,113.6132 881.451726,117.5822 C887.045726,123.9412 892.378726,130.5362 897.889726,136.9632 C900.504726,140.0132 903.181726,142.9702 905.918726,145.8522 L908.02917,147.626719 C908.381726,147.921089 908.735059,148.2142 909.089726,148.5052 C972.379726,188.0382 1016.19473,247.1892 1016.31773,324.2352 C1016.50473,372.3682 1023.42073,420.4422 1036.58473,466.7342 C1047.13173,511.9662 1081.20973,558.1982 1062.78773,605.4352 C1083.58873,602.1022 1085.52073,628.8582 1098.52873,638.9682 L1102.61597,640.074835 C1120.89014,644.995006 1137.65069,649.098717 1156.34773,651.9542 C1173.57973,654.0242 1193.50073,651.7502 1209.69273,659.5272 C1215.21273,663.4462 1213.23773,670.5172 1213.66773,676.3512 C1254.53273,659.6262 1291.23473,636.5212 1329.31173,614.7852 L1330.58697,614.328627 C1344.68081,609.323267 1369.82187,601.8021 1381.40173,612.7922 C1388.17473,620.7642 1381.33673,627.8812 1375.31573,633.2202 C1363.98573,643.2672 1351.96673,652.4832 1340.35873,662.1932 C1371.63801,664.8057 1403.01472,662.72154 1433.94885,657.645056 L1435.63573,657.3652 C1443.21473,656.1312 1452.15173,653.1792 1459.66973,655.9762 C1484.04773,669.5892 1455.83973,685.4792 1442.75073,693.4312 C1452.72373,692.5992 1462.67973,691.3592 1472.67273,689.6472 C1476.64773,688.9672 1479.51973,691.2312 1479.95956,695.1952 C1480.21073,714.2142 1455.17073,715.2392 1442.29373,722.5132 L1443.32595,722.268983 C1451.74489,720.318202 1463.84965,718.60464 1466.48773,729.1032 C1469.24373,741.9912 1451.87873,747.1982 1442.96773,750.6322 C1373.55073,773.9002 1298.13173,780.9642 1225.49573,772.1632 C1220.16373,797.1982 1174.90873,849.3222 1149.99173,856.8342 C1122.38373,863.7202 1089.17773,841.8952 1064.03073,831.3222 C999.596726,798.5302 939.894726,744.4362 921.518726,672.6642 C906.075726,783.9482 912.317726,896.1402 935.500726,1005.6322 C939.253726,1014.1682 943.213726,1022.5722 947.668726,1030.7612 C949.014726,1030.9772 950.153726,1031.8772 950.416726,1033.6992 C950.553726,1034.6962 950.754726,1035.6662 950.981726,1036.6232 C955.417726,1044.1632 960.279726,1051.4082 964.793726,1058.9052 C965.726726,1060.4532 966.647726,1062.0612 967.489726,1063.7082 C997.539726,1099.1682 960.913726,1144.8612 928.155726,1163.9772 C1109.93073,1460.3522 992.526726,1833.8432 1115.68373,2147.8522 L1115.95761,2148.74646 C1120.63234,2163.68077 1134.86951,2194.42082 1114.27873,2201.4582 C1107.74173,2216.2282 1074.79973,2217.9722 1060.16173,2222.5962 C1068.09273,2245.5802 1076.91173,2268.3112 1088.74173,2289.6172 L1088.95573,2289.7122 L1088.95573,2289.7122 C1093.66773,2286.2452 1103.77173,2282.6632 1107.94773,2286.4412 C1108.96373,2286.5682 1109.97573,2286.8552 1110.96373,2287.3472 C1117.42673,2290.5602 1122.62573,2296.7032 1128.80773,2300.5712 C1132.15073,2302.6632 1135.62573,2304.5632 1139.20473,2306.2222 C1142.53573,2307.7672 1146.07573,2308.7842 1148.79373,2311.3302 C1149.65273,2312.1332 1149.86973,2313.1542 1149.65773,2314.0952 C1151.80373,2315.2102 1153.94773,2316.3272 1156.08473,2317.4502 L1157.24555,2316.72274 C1176.13551,2304.94776 1191.32593,2298.56886 1163.84673,2321.1902 C1173.69273,2325.7442 1183.79073,2329.7292 1193.95273,2333.4612 C1201.67173,2329.7462 1209.90973,2327.0362 1218.40373,2326.6652 C1219.93073,2328.5552 1208.25573,2335.8562 1206.32973,2337.8682 C1258.01673,2355.7772 1314.86773,2369.8002 1353.68873,2410.9492 L1354.1191,2411.43702 C1360.72847,2418.89428 1370.93612,2429.00109 1366.54073,2439.4612 C1377.76973,2444.1982 1383.29273,2459.7372 1380.06973,2472.0462 C1363.86973,2525.9652 1115.52673,2504.6852 1059.74973,2506.0952 C1015.64173,2500.4642 896.080726,2509.6962 871.551726,2476.1022 C863.292726,2466.7942 865.210726,2448.6922 876.956726,2443.7952 C868.804726,2437.5252 877.729726,2414.0302 877.749726,2403.4792 L877.936955,2402.25957 C879.185841,2394.38155 884.598286,2363.551 890.215726,2342.0062 C890.330726,2340.3092 890.555726,2338.5702 890.827726,2336.8182 L891.003982,2335.7059 C892.121106,2328.83888 893.835367,2321.85464 898.268726,2316.3312 C901.452726,2312.3662 905.864726,2309.9182 910.651726,2309.0332 C911.934726,2300.8302 912.987726,2292.6072 913.891726,2284.3712 C914.528726,2274.6882 914.770726,2264.9872 914.661726,2255.2842 C914.604726,2250.3832 914.475726,2245.4862 914.236726,2240.5912 C914.060726,2236.9892 914.266726,2232.7092 913.352726,2229.0272 C912.743726,2229.6512 911.876726,2229.9862 910.905726,2229.6532 C908.842726,2228.9462 906.943726,2227.6422 905.049726,2226.5742 C904.978726,2226.5342 904.921726,2226.4872 904.860726,2226.4432 C894.746726,2233.0152 887.427726,2204.8952 883.493726,2197.2632 C792.864726,1937.1242 864.421726,1637.7432 717.506726,1393.7902 C697.224726,1437.3462 679.795726,1477.3032 660.273726,1521.1632 C599.305726,1658.1352 524.040726,1899.4072 473.565726,2044.4412 C459.832726,2074.0882 443.690726,2102.7432 424.502726,2129.2162 C418.368726,2136.1762 414.252726,2146.4172 405.372726,2150.1572 L404.595726,2150.2752 L404.595726,2150.2752 C402.225726,2154.7072 398.935726,2158.4402 394.043726,2158.3152 C392.843726,2158.2842 391.619726,2158.1482 390.383726,2157.9352 C386.047726,2188.1152 380.595726,2218.4852 373.347726,2248.1832 L374.325593,2247.7737 C379.069446,2245.81165 384.058532,2244.14033 388.927726,2244.5772 C400.743726,2247.5692 396.368726,2257.9082 387.028726,2261.3182 C398.654726,2264.9322 406.521726,2275.1252 415.154726,2283.6112 C422.450726,2279.6762 430.628726,2277.6352 439.367726,2278.4952 C440.705726,2278.6262 441.725726,2279.2112 442.434726,2280.0152 C442.935726,2280.0182 443.422726,2280.0462 443.884726,2280.1232 L442.933726,2280.6972 L442.933726,2280.6972 C444.485726,2283.3092 443.377726,2287.2852 439.367726,2287.3072 C436.219726,2287.3242 433.188726,2287.6102 430.257726,2288.1522 C428.222726,2289.3432 426.197726,2290.5462 424.200726,2291.8032 C430.937726,2297.7562 438.110726,2303.2472 445.496726,2308.2682 C449.397726,2306.2732 453.522726,2304.6012 457.813726,2303.2602 C463.352726,2301.5282 465.770726,2310.3412 460.206726,2311.9382 C459.025726,2312.2772 457.855726,2312.6542 456.693726,2313.0582 L455.552526,2313.74918 C455.285246,2313.90936 455.007726,2314.0744 454.717726,2314.2452 C507.714726,2351.9572 597.295726,2347.1792 621.528726,2417.7972 C622.330726,2420.4622 621.917726,2422.7612 620.790726,2424.5702 C626.042726,2429.3922 628.465726,2438.0582 627.282726,2444.7082 L627.383675,2445.26708 C628.284666,2450.64805 626.988559,2455.37057 621.212726,2456.5992 C582.671726,2460.1912 544.224726,2462.4752 505.515726,2463.1802 L502.392049,2463.20576 C446.933168,2463.57888 177.181406,2461.56184 165.013726,2425.9212 C161.768726,2419.3232 160.768726,2409.0852 165.516726,2403.2012 C166.067726,2400.0352 167.152726,2397.1522 169.081726,2394.8952 C161.268726,2386.9982 165.111726,2367.0902 164.155726,2357.0642 C165.870726,2323.5902 172.656726,2287.6972 193.100726,2260.3052 C193.434726,2259.8722 193.838726,2259.6052 194.255726,2259.4752 C197.825726,2255.8852 202.516726,2253.6162 207.880726,2253.3112 C208.047726,2252.8942 208.217726,2252.4772 208.380726,2252.0602 C212.550726,2242.2202 216.511726,2232.1982 220.446726,2222.1292 C223.366726,2210.6882 226.412726,2199.2772 229.463726,2187.9272 C232.512726,2176.5882 235.495726,2165.2332 238.413726,2153.8602 C240.737726,2144.7942 242.736726,2134.5772 246.758726,2125.9132 C246.649726,2125.5432 246.544726,2125.1742 246.424726,2124.8042 L242.239451,2123.10912 C214.825686,2111.95759 171.389026,2093.14845 180.932726,2080.7272 C282.631726,1869.2382 382.180726,1568.1542 475.508726,1348.9022 C476.966726,1344.6032 478.508726,1340.3292 480.201726,1336.0952 C484.323392,1325.7877 488.498531,1315.49548 492.732929,1305.23126 L495.280726,1299.0762 L535.939726,1201.1692 L535.939726,1201.1692 C540.195726,1190.9212 544.993726,1180.7272 548.347726,1170.1382 C551.579726,1159.9392 552.447726,1149.7912 546.307726,1140.5092 C540.813726,1132.2032 533.071726,1125.3292 526.877726,1117.5272 C522.193726,1111.6272 517.627726,1105.3252 513.535726,1098.7032 C509.819726,1093.8002 506.713726,1088.1872 503.942726,1083.6642 C499.501726,1076.4172 493.854726,1068.3922 490.631726,1060.0182 C486.474726,1057.3952 482.309726,1054.7852 478.129726,1052.2032 C470.910726,1048.1532 463.807726,1043.9132 456.893726,1039.3262 C448.161726,1034.1292 439.373726,1029.0252 430.516726,1024.0342 C427.319726,1022.4462 424.120726,1020.8642 420.917726,1019.2872 C411.321726,1020.1192 384.811726,1008.2822 375.780726,1000.2732 C374.748726,1000.0652 373.721726,999.8302 372.700726,999.5742 C372.292726,1004.6892 370.622726,1009.3212 366.731726,1012.7562 C340.854726,1025.6072 307.872726,967.4052 298.782726,947.9852 C280.718726,965.6462 323.820726,1053.0072 337.743726,1070.8662 L338.486505,1071.97303 C342.210619,1077.55714 346.114622,1083.82773 351.396863,1087.95384 L351.929726,1088.3592 C355.550726,1091.0402 356.222726,1095.2282 353.268726,1098.7502 C328.191726,1121.4082 301.867726,1071.6562 288.129726,1055.2652 C231.583726,971.9652 195.452726,870.6022 197.036726,769.2672 C171.312726,760.6532 135.700726,756.4452 137.007726,721.5172 C135.692726,695.1522 130.928726,669.0692 130,642.6842 C129.734726,636.6162 148.580726,639.6262 152.833726,640.2662 C146.568726,579.6422 156.034726,518.0922 172.917726,459.8272 C217.241726,310.7412 399.764726,42.0352 579.415726,32.3342 C579.258726,32.0412 579.332726,31.6462 579.735726,31.5412 C587.866726,29.4282 596.852726,29.7662 605.208726,30.0322 C613.905726,30.3082 622.745726,30.3682 631.396726,31.3512 C640.362726,32.3692 649.856726,35.6672 655.879726,42.1932 L657.965948,38.4259956 C660.387775,34.0281136 662.721281,29.5855333 664.483726,24.7322 C665.376726,22.2802 666.075726,19.7382 666.713726,17.1692 C667.434726,13.5052 667.615726,9.6912 669.348726,6.3632 C669.394726,6.2762 669.451726,6.2042 669.501726,6.1232 C670.124726,4.0262 670.837726,1.9722 671.724726,-0.0018 Z M892.215726,2443.6662 C889.647726,2446.2782 885.196726,2447.4162 881.254726,2446.1692 C868.153726,2483.4152 939.230726,2481.0782 962.042726,2483.1742 C986.367726,2485.7682 1429.46373,2508.8302 1354.52873,2454.2182 C1266.61473,2487.7482 972.571726,2491.4462 892.215726,2443.6662 Z M1108.00273,2295.9722 C1102.08773,2302.0762 1093.16873,2304.7912 1086.82373,2310.6162 C1068.88673,2325.7992 1054.45773,2347.1592 1029.66773,2351.1832 C997.099726,2357.2652 967.739726,2341.1812 938.607726,2328.4442 C934.980726,2328.2702 931.196726,2326.7362 927.478726,2325.6002 C927.346726,2325.8702 927.215726,2326.1422 927.065726,2326.3902 C926.884726,2326.3192 926.691726,2326.2592 926.475726,2326.2242 C926.151726,2326.1712 925.844726,2326.1362 925.527726,2326.0892 C924.779726,2325.4912 923.991726,2324.9892 923.175726,2324.5642 C922.682726,2324.4892 922.192726,2324.4292 921.705726,2324.3992 C915.701726,2324.0322 909.184726,2325.4282 905.331726,2330.4082 C905.001726,2330.8342 904.702726,2331.2802 904.413726,2331.7352 C902.546726,2338.3552 902.307726,2346.3662 903.208726,2351.9682 C903.500726,2353.7972 902.738726,2355.5972 901.448726,2356.6352 C900.297726,2384.3462 897.179726,2412.1742 895.002726,2439.5172 C905.898726,2443.4352 917.204726,2446.4192 928.520726,2448.3072 C1006.60773,2457.9132 1085.52873,2462.3762 1164.21573,2459.9612 C1211.05773,2458.2672 1257.83373,2454.0792 1304.18973,2447.1162 C1319.17473,2445.7042 1334.51273,2439.9032 1349.48773,2442.2452 C1350.12573,2441.0412 1351.12073,2440.0102 1352.50273,2439.3072 C1314.11873,2386.7122 1248.51073,2372.4932 1191.31373,2349.4342 C1181.86673,2355.4772 1176.05073,2368.0622 1165.52873,2371.8102 C1161.44373,2372.4242 1155.76373,2370.0142 1156.36273,2364.8282 C1158.06073,2354.2132 1169.52073,2349.3712 1177.23773,2343.2102 C1168.95673,2339.3392 1160.83373,2335.1342 1152.90973,2330.4572 C1145.12573,2337.4772 1135.91373,2342.8182 1128.62573,2350.3062 C1132.76873,2360.4272 1115.49773,2359.5512 1115.30473,2348.7792 C1116.49973,2336.8642 1135.36673,2331.8192 1143.79373,2324.8712 C1130.63173,2316.8562 1118.87573,2306.7462 1108.00273,2295.9722 Z M180.650726,2400.1042 C180.191726,2401.0112 179.442726,2401.8352 178.333726,2402.4762 C176.413951,2403.58672 177.336544,2409.46273 177.432997,2411.44365 L177.438726,2411.5882 C177.543726,2415.1442 177.765726,2418.6902 178.073726,2422.2302 C181.313726,2425.1552 185.456726,2427.3782 190.059726,2428.7152 C330.244726,2451.0962 473.119726,2452.9132 614.657726,2444.7872 C614.006726,2441.0242 611.255726,2437.9242 608.820726,2434.7832 C519.342726,2442.3952 427.712726,2434.4312 338.084726,2427.0172 C285.686726,2420.1252 230.786726,2417.2722 180.650726,2400.1042 Z M384.743726,2262.3742 C361.639726,2270.3312 340.141726,2281.3712 319.663726,2294.5982 C312.053726,2299.5512 304.790726,2305.2312 296.042726,2308.0722 C265.752726,2317.1932 220.339726,2273.3782 219.611726,2272.8872 C209.092726,2265.8012 197.938726,2272.4072 192.215726,2282.2282 C191.686726,2283.1362 182.913726,2333.3652 183.178726,2357.9702 C181.604726,2366.3332 185.804726,2380.0062 183.569726,2389.1262 C185.326726,2391.2422 187.831726,2392.2372 189.518726,2394.4512 C190.129726,2395.2522 189.956726,2396.1582 189.428726,2396.8432 C271.224726,2403.5772 352.544726,2416.3572 434.729726,2419.0552 C490.977726,2422.0312 547.332726,2421.3472 603.589726,2420.6652 C590.790726,2383.0652 547.194726,2373.1342 513.894726,2360.7572 C488.734726,2351.7142 465.570726,2338.2382 445.188726,2320.9182 C436.349726,2327.1262 429.379726,2335.8262 423.117726,2344.5662 C420.272726,2348.1192 414.429726,2350.8022 411.382726,2345.8792 C408.244726,2340.7712 414.370726,2334.3162 421.934726,2328.6602 C425.912726,2322.7662 430.929726,2317.7442 436.706726,2313.6062 C430.319726,2307.9102 424.169726,2301.9752 418.408726,2295.6662 C406.461726,2303.7652 397.684726,2315.4152 389.090726,2326.7222 C384.960726,2331.2292 377.236726,2325.2692 380.624726,2320.1892 C383.339726,2316.6862 386.395726,2313.4562 389.667726,2310.4292 C394.599726,2301.1192 401.700726,2292.5232 410.315726,2286.5702 L409.658671,2285.73551 C402.462527,2276.49495 396.241314,2265.40923 384.743726,2262.3742 Z M181.179726,2394.2042 C180.981726,2394.4472 180.773726,2394.6842 180.551726,2394.9102 C180.749726,2395.3152 180.901726,2395.7382 181.013726,2396.1712 L183.112726,2396.3382 L183.112726,2396.3382 C182.383726,2395.7332 181.741726,2394.9972 181.179726,2394.2042 Z M1052.47673,2224.1192 C1009.62173,2232.2152 965.350726,2235.3282 922.094726,2228.6422 C927.104726,2256.5932 930.241726,2284.7192 928.598726,2313.1042 C993.273726,2331.7842 1020.14573,2362.9322 1073.95673,2300.6822 C1071.35673,2296.7222 1069.85673,2291.8582 1068.11073,2287.1682 C1060.67473,2266.8142 1054.52873,2245.7612 1052.47673,2224.1192 Z M265.346726,2132.4432 C264.735726,2133.7972 263.633726,2134.9092 262.045726,2135.4002 C261.479726,2137.9032 260.894726,2140.4042 260.270726,2142.8992 C259.220726,2155.7772 254.362726,2168.5442 249.338726,2180.4252 C248.993726,2181.2452 248.654726,2182.0652 248.313726,2182.8862 C244.999726,2192.7672 241.525726,2202.6282 238.098726,2212.5012 C235.502726,2222.7562 233.215726,2233.0962 230.825726,2243.4012 C230.364726,2250.3922 229.372726,2257.3232 227.847726,2264.1732 C227.776726,2264.4932 227.681726,2264.7872 227.576726,2265.0682 C229.971726,2266.1372 232.283726,2267.3752 234.463726,2268.6262 C300.079726,2317.9472 288.747726,2284.9722 351.748726,2257.3592 C351.386476,2254.70653 352.714087,2252.31194 353.79702,2249.56636 L353.936726,2249.2062 C354.002726,2249.0332 354.067726,2248.8582 354.133726,2248.6842 C354.029726,2247.6372 354.090726,2246.5132 354.367726,2245.3172 C360.748726,2219.2062 369.633726,2193.5472 377.949726,2167.9982 C379.280726,2164.1502 380.821726,2160.3912 382.396726,2156.6372 C342.450726,2156.1232 302.938726,2145.4822 265.346726,2132.4432 Z M513.075726,1074.3312 C875.501726,1526.4722 796.103726,1579.7912 874.140726,2101.0502 C881.720726,2141.6272 897.125726,2180.1402 907.319726,2219.9452 L908.727085,2219.8079 C910.121101,2219.67445 911.445226,2219.5912 912.430726,2219.9062 L912.469726,2219.9222 L912.469726,2219.9222 L916.488295,2219.87124 C963.377834,2219.2268 1010.47123,2216.77464 1056.26873,2206.0802 C1072.46473,2203.2322 1088.24773,2195.7692 1104.45473,2194.2052 C1104.52073,2192.0992 1105.51873,2190.1342 1106.87673,2188.9972 C981.873726,1893.1882 1068.96773,1555.2772 960.516726,1254.4412 C950.223726,1224.3362 937.965726,1194.9002 925.287726,1165.7302 C785.897726,1249.1082 630.117726,1154.6862 513.075726,1074.3312 Z M248.065726,2145.1292 C247.292583,2148.54149 246.451113,2151.90749 245.683638,2155.15919 L244.552726,2160.0092 C246.161726,2155.1052 247.430726,2150.1332 248.065726,2145.1292 Z M561.713726,1154.4012 C561.954726,1161.8762 560.151726,1169.4132 557.709726,1176.4432 C549.883726,1198.9702 539.859726,1220.9172 530.885726,1243.0112 C524.795726,1258.0022 518.760726,1273.0182 512.660726,1288.0082 C422.313726,1529.4832 311.411726,1853.1582 201.993726,2081.9972 C243.219726,2105.8692 288.422726,2122.7582 335.186726,2131.9082 C346.045726,2135.5422 377.098726,2135.7032 388.089726,2141.4632 L390.592726,2139.0052 L390.592726,2139.0052 C391.025726,2128.7032 402.698726,2121.3592 407.371726,2112.3252 C428.467726,2082.5912 445.283726,2050.0782 460.538726,2017.0352 L463.031412,2009.78413 C503.586277,1891.63123 556.513018,1728.98329 612.273288,1591.48367 L613.998726,1587.2392 C637.106726,1530.5332 652.295726,1478.2592 680.184726,1435.3612 C681.704726,1433.0522 683.242726,1430.7412 684.790726,1428.4302 C685.930726,1426.1382 687.081726,1423.8482 688.251726,1421.5652 C693.251726,1411.8112 698.643726,1402.2702 703.731726,1392.5632 C705.900726,1388.4252 708.051726,1383.7582 709.190726,1378.9772 C664.889726,1301.1202 612.098726,1228.3502 561.713726,1154.4012 Z M628.063726,38.7052 C614.160726,42.0892 599.913726,43.4712 585.930726,46.2782 C489.561726,57.7752 415.677726,126.1402 352.034726,194.0202 C231.475726,320.6972 161.332726,476.5662 166.509726,652.7332 C209.562726,660.5792 252.171726,672.0642 296.036726,674.5732 C289.661726,664.9132 300.337726,652.8302 304.012726,643.5812 C367.459726,520.9512 416.448726,385.5772 456.229726,256.4722 L455.148612,262.107294 C442.6577,326.903454 428.108007,391.424313 405.899726,453.6662 C412.332726,447.3392 518.010726,363.2592 509.750726,391.0612 C477.463726,416.3062 440.996726,436.3112 407.165726,459.4782 C447.390726,593.8992 389.237726,730.0982 378.188726,864.5742 C375.412726,894.4752 375.653726,924.5842 371.922726,954.3722 C370.503726,957.7402 371.997726,964.5922 369.908726,967.7972 C371.455726,975.7032 374.709726,982.9072 381.424726,989.0782 C384.251726,991.6762 387.337726,993.9262 390.581726,995.9342 C398.680726,997.1562 406.815726,1000.2772 413.411726,1003.1662 C428.088726,1009.5962 441.005726,1019.0762 454.124726,1028.1322 L454.475726,1028.3702 L454.475726,1028.3702 C475.628726,1039.2432 496.759726,1051.5942 517.968726,1064.4752 L518.915726,1064.9712 C526.804726,1069.1132 534.870726,1072.8492 541.744726,1078.5932 C542.057726,1078.8552 542.266726,1079.1552 542.403726,1079.4692 L555.286136,1087.42801 C658.472412,1151.13152 764.864566,1214.13152 885.844726,1168.6592 C919.835726,1154.9632 969.250726,1127.2132 962.904726,1084.3042 C961.653726,1080.1882 959.750726,1076.3232 957.598726,1072.5602 C957.000726,1071.7522 956.385726,1070.9572 955.766726,1070.1752 C951.078726,1064.2492 945.831726,1058.8102 941.760726,1052.4082 C940.104726,1049.8042 938.619726,1047.1222 937.320726,1044.3622 C936.402726,1044.0832 935.586726,1043.4372 935.072726,1042.3132 C929.249726,1029.6092 923.545726,1016.8832 918.233726,1003.9532 C853.831726,779.3562 932.002726,538.0382 954.117726,311.5072 C955.650726,298.5352 957.907726,285.4312 957.901726,272.3652 C957.901726,271.7522 958.789726,271.7722 958.838726,272.3652 C966.638726,330.1832 960.721726,388.5392 953.305726,446.0962 C943.810726,518.1002 931.335726,589.8052 922.764726,661.9392 C945.549726,734.6492 1009.35973,787.1882 1076.36273,818.6932 C1087.76273,824.1112 1099.41873,828.9392 1111.30373,833.1912 L1112.10113,833.467759 C1125.16019,838.038439 1139.89885,845.10518 1152.49773,835.8432 C1176.67573,819.4292 1193.74473,794.3822 1209.41373,770.2612 C1203.07473,769.5742 1196.72773,768.9792 1190.37573,768.5422 C1174.77973,786.3872 1155.67073,801.5362 1135.50473,813.9162 C1127.28673,818.6282 1117.95073,816.6352 1114.15173,807.4122 C1110.56607,798.710169 1114.95658,788.544629 1118.13558,780.153911 L1118.59473,778.9292 C1134.68873,735.5142 1162.63373,695.7272 1200.36473,668.5392 C1171.89773,662.8462 1142.32973,663.0192 1115.02173,651.7672 C1116.51073,653.3322 1114.55973,655.0832 1113.61173,656.4102 C1113.94873,658.9832 1112.07973,660.8642 1109.78273,661.5532 C1087.50073,690.6752 1070.61373,725.1632 1067.08773,762.0972 C1068.02573,774.6772 1056.77273,789.2052 1045.93673,775.9972 C1037.46173,739.2292 1070.79973,681.7692 1100.11473,659.0812 C1070.71773,638.8972 1079.28673,609.7692 1060.83073,609.6352 C1056.06173,618.7922 1049.83873,627.5592 1041.99573,634.3612 C1038.45073,637.2442 1034.14573,639.4182 1030.34073,641.9762 C1026.33873,644.6672 1022.17273,638.7472 1025.34173,635.4972 L1026.17769,634.491919 C1038.21493,620.089592 1052.50854,605.932086 1054.99473,586.4482 C1058.58873,562.4522 1047.80773,538.1432 1039.54373,516.2242 C1023.70073,474.2032 1013.19273,430.4812 1008.07373,385.8642 C1002.27473,345.8882 1009.32673,304.4222 995.645726,265.7382 C992.926726,254.9652 989.015726,245.1532 984.221726,236.0472 C984.107726,235.9522 983.994726,235.8552 983.891726,235.7362 C978.200726,229.1512 973.654726,221.8262 968.348726,214.9292 C962.799726,207.7142 956.783726,200.8482 950.411726,194.3512 C939.762726,183.4952 928.005726,174.4372 915.749726,165.7152 C915.522726,165.6332 915.293726,165.5272 915.063726,165.3912 C912.767726,164.0342 910.562726,162.3862 908.434726,160.5752 L908.227726,160.4312 C901.100726,155.4762 893.827726,150.0982 888.264726,143.3712 C882.804726,136.7662 878.918726,129.0642 874.460726,121.7892 C868.366726,114.3532 862.557726,106.3862 855.208726,100.1902 C851.051726,97.8162 846.725726,95.5792 843.015726,92.6102 C842.408726,92.3562 841.791726,92.1152 841.163726,91.8872 C842.744726,98.3352 845.136726,104.2682 847.291726,110.8182 C850.413726,109.5002 854.686726,110.9612 855.211726,115.7722 L855.405446,117.568152 C858.54037,147.030616 860.127226,182.6828 842.805726,208.1922 C804.663726,263.5112 747.692726,216.2812 718.879726,177.3832 C693.022726,146.3602 671.284726,111.8522 655.231726,74.7662 L654.965939,74.2759636 C651.976663,68.6006816 645.498397,51.2943194 643.667726,42.9782 C639.038726,40.5402 633.406726,39.3592 628.063726,38.7052 Z M505.948726,1069.7512 C505.832726,1069.8972 505.700726,1070.0232 505.556726,1070.1332 C510.966726,1077.8192 516.120726,1085.7672 521.432726,1093.4792 C517.077726,1086.3592 512.983726,1079.1842 509.358726,1071.9302 C508.224726,1071.1982 507.084726,1070.4762 505.948726,1069.7512 Z M203.196726,771.1802 C223.870726,883.4452 253.415726,1001.5602 335.739726,1085.4982 C310.118726,1049.4022 290.194726,1007.2632 284.397726,963.1262 C284.157726,951.2812 288.470726,938.7682 301.574726,937.0142 C303.811177,936.7142 305.510064,938.71805 306.30886,940.499853 L306.385726,940.6772 C311.540726,952.9852 318.243726,964.6902 326.180726,975.4152 L326.958911,976.430006 C332.948328,984.176512 358.370376,1015.75475 361.916726,1000.6602 C359.320726,924.3572 280.477726,892.8982 267.565726,787.8092 C245.473726,785.4692 224.509726,777.0762 203.196726,771.1802 Z M372.689726,993.8652 C372.774726,995.0632 372.815726,996.2492 372.797726,997.4172 C373.968726,996.9332 375.172726,996.5452 376.403726,996.2442 C375.153726,995.4712 373.917726,994.6752 372.689726,993.8652 Z M371.520726,985.6432 C371.953726,987.8362 372.319726,990.0482 372.544726,992.2382 C374.794726,992.9542 377.020726,993.7372 379.234726,994.5512 C377.892726,993.3462 376.615726,992.0692 375.418726,990.7102 C374.023726,989.1252 372.715726,987.4242 371.520726,985.6432 Z M401.989726,464.8002 C385.840726,509.8772 367.752726,554.2602 347.557726,597.6762 C333.997726,623.0822 324.950726,652.6862 306.186726,674.7332 C306.003726,674.9102 305.819726,675.0732 305.631726,675.2262 L305.942482,675.237948 C311.533897,675.485656 341.914466,678.47644 326.319726,685.3482 C320.264726,709.2112 312.331726,732.5292 305.698726,756.2352 L305.550837,756.922274 C303.123981,768.38773 300.055366,791.48388 283.769726,783.7752 C282.002726,785.1262 279.881726,786.0772 277.600726,786.7132 C284.920726,850.9622 325.551726,892.7882 357.670726,945.2452 C350.490852,917.560643 352.589126,888.649929 355.089085,860.383033 L355.708726,853.4272 C368.979726,723.8212 417.681726,596.3732 401.989726,464.8002 Z M536.868926,876.7753 C510.691926,844.1393 381.937926,521.0313 472.926926,716.7823 C505.265926,784.9293 531.884926,857.8833 585.235926,913.0993 C588.924926,917.0643 584.064926,924.0303 579.270926,920.8293 C562.049926,909.3303 548.111926,894.0773 536.868926,876.7753 Z M443.683626,486.2512 C443.575626,485.7272 444.246626,485.4382 444.541626,485.8882 C479.524626,554.9582 504.502626,629.1842 544.029626,696.1642 C567.889626,737.6382 596.520626,776.2982 629.306626,811.1612 C631.769626,813.7792 628.063626,817.3972 625.395626,815.0722 C531.803626,728.7202 486.300626,603.1932 443.683626,486.2512 Z M1133.49573,770.6142 L1133.43873,770.6232 L1133.43873,770.6232 L1132.57835,772.849325 C1132.28598,773.59995 1131.98873,774.3582 1131.68873,775.1212 C1131.83173,775.0582 1131.97573,775.0002 1132.11973,774.9402 C1132.42673,774.6312 1132.73373,774.3182 1133.04073,773.9892 C1132.97173,772.8532 1133.11273,771.7142 1133.49573,770.6142 Z M153.204726,642.9782 C148.452726,644.8432 142.614726,645.1952 137.361726,645.6502 C143.242726,673.3592 148.319726,701.2792 153.642726,729.0622 C156.103726,737.5902 161.889726,740.5842 169.897726,743.2882 L176.333889,745.345893 C206.380432,754.974338 236.596726,764.864 267.578726,770.7692 C269.756726,769.3512 272.850726,769.4202 274.296726,771.6922 C275.803726,771.8332 277.350726,771.9162 278.879726,772.0612 C287.157726,741.4902 301.322726,711.8662 320.277726,686.5072 C267.296726,688.2152 213.932726,674.2422 163.530726,658.6192 C161.489726,659.6102 158.801726,658.9902 157.940726,656.6452 L157.164493,656.423076 C148.703006,653.911914 137.483686,647.74607 155.265726,650.8782 C154.191726,648.3742 153.595726,645.6822 153.204726,642.9782 Z M1371.45773,620.3562 C1336.33873,614.5512 1309.50073,643.0062 1279.52873,656.0682 C1261.58373,663.7662 1213.76273,687.6422 1196.37773,679.7002 C1172.54273,702.6442 1152.41873,729.4512 1138.34673,759.5292 C1142.18273,759.3002 1146.01973,759.1302 1149.85673,759.0082 C1156.80573,756.7772 1164.22373,756.6632 1171.43873,758.8102 C1243.70973,759.6062 1316.02873,773.6502 1388.00873,755.8512 L1389.66505,755.542064 C1404.45123,752.736571 1454.93353,742.06548 1457.80873,731.6082 C1457.05373,727.0562 1443.47973,731.8652 1440.87073,732.3802 C1420.12473,736.4672 1399.04573,738.4162 1378.02373,740.4632 C1372.17673,741.0292 1372.25073,731.9332 1378.02373,731.3552 C1403.32773,728.8372 1427.30273,719.3382 1450.52173,709.4552 C1452.98973,708.3602 1459.52873,706.0932 1464.05273,703.1522 C1442.59973,706.8002 1420.49373,707.4332 1398.78673,706.6592 C1391.31373,705.6922 1390.78673,694.3402 1398.78673,694.5642 C1413.44073,696.1842 1427.44073,688.9502 1439.40373,681.3142 L1442.00725,679.624028 C1461.94795,666.624886 1460.55473,666.06152 1435.35473,670.8932 C1398.32373,677.6362 1360.84673,677.3862 1323.45073,674.8132 C1318.11373,674.7232 1314.42873,667.5412 1318.84473,663.6942 C1336.06373,648.8252 1354.52373,635.5652 1371.45773,620.3562 Z M1201.70573,674.5102 L1201.29873,674.896647 C1200.43943,675.721251 1199.73455,676.450709 1199.34014,676.839071 L1199.18073,676.9932 C1198.65173,677.4902 1198.13873,678.0042 1197.61473,678.5062 C1199.91073,679.2772 1202.44373,679.3212 1205.05673,678.9162 C1203.47973,677.9302 1202.30773,676.3192 1201.70573,674.5102 Z M541.923164,555.597108 L541.838,555.4892 L542.03514,555.702107 C564.625377,580.147582 587.522781,619.792733 606.238426,651.0562 C608.705576,676.6815 553.369406,570.362202 541.923164,555.597108 Z M1110.38773,650.0712 C1110.60639,650.342533 1110.8175,650.621867 1111.02195,650.907126 L1111.32373,651.3392 L1111.80973,651.0392 C1111.98873,650.9322 1112.17673,650.8662 1112.36873,650.8172 C1111.70673,650.5742 1111.04773,650.3192 1110.38773,650.0712 Z M1007.03013,566.6181 C1027.35613,569.8091 985.792126,595.0631 980.306126,598.6811 C976.793126,600.0161 943.392126,627.5931 945.418126,618.6421 C961.055126,598.5661 982.632126,575.1681 1007.03013,566.6181 Z M211.902026,513.6951 C219.420026,501.5861 260.335026,517.5261 273.268026,519.4361 C280.538026,521.3551 287.729026,523.6261 295.077026,525.2371 C300.819026,527.3201 327.593026,525.3021 317.767026,536.6531 C307.514026,542.1641 294.128026,537.9031 283.628026,534.9781 C262.737026,529.2711 241.774026,522.6131 220.381026,519.4461 C219.739026,519.1251 219.700026,519.3421 220.262026,520.0991 C224.864026,530.3251 234.542026,539.9191 245.443026,543.2141 C246.196026,543.4331 245.879026,544.5841 245.117026,544.3901 L244.38457,544.235443 C232.124267,541.499248 205.636886,528.52348 211.902026,513.6951 Z" id="Ink" fill="#000"/></g></g><g id="Head" transform="translate(405.000000, 189.000000) scale(0.9978902953586498 1)"><g id="Head/Gray Short" stroke="none" stroke-width="1" fill="none" fill-rule="evenodd"><path d="M287.4077,509.471946 C265.2117,509.6 246.3477,503.302 231.9537,492.883 C213.9917,486.478 192.3257,476.599 179.1657,466.228 C174.0327,467.538 167.8907,462.085 163.9627,459.207 C139.5377,440.968 120.3657,414.271 114.6847,387.529 C105.9147,398.599 93.4347,399.059 81.4797,393.557 C56.4197,379.345 57.3567,349.42 66.3787,327.062 C47.4117,284.505 34.2667,172.159 63.2197,126.818 C69.1417,120.034 77.8327,115.976 84.0897,109.019 C89.6577,102.943 94.9537,96.728 101.4317,91.92 C121.1977,76.876 155.2417,68.866 176.5577,65.099 C265.5397,45.861 333.9077,80.439 414.5097,109.606 C409.8707,121.206 403.4537,131.785 396.0997,141.649 C416.1097,149.118 406.9187,165.911 391.3947,174.424 L382.1527,169.932 C396.5597,221.478 429.7157,349.66 415.4097,390.823 C404.0017,455.043 353.9357,509.935 287.4077,509.471946" id="Skin" fill="#ffdbb4"/><path d="M414.180138,110.065812 C409.541138,121.665812 403.124138,132.244812 395.770138,142.108812 C415.780138,149.577812 406.589138,166.370812 391.065138,174.883812 L384.383504,171.634526 C381.459208,152.77851 375.828896,142.936124 367.492567,142.107368 C353.825126,140.748619 323.578556,166.316266 310.407201,166.316266 C297.235845,166.316266 230.32078,137.719149 193.56334,137.719149 C156.8059,137.719149 125.514732,168.079928 113.081399,190.084218 C104.792509,204.753744 110.960581,221.19799 131.585612,239.416956 C119.24947,255.229059 113.081399,266.592647 113.081399,273.507721 C113.081399,280.422794 114.522923,294.715028 117.405971,316.384422 C104.122956,312.025601 93.6827919,309.846191 86.0854789,309.846191 C78.4881659,309.846191 71.8937551,314.053147 66.3022465,322.467058 L66.3022465,322.467058 L63.9514038,322.471608 C46.159461,276.671044 35.0178727,170.926359 62.8901376,127.277812 C68.8121376,120.493812 77.5031376,116.435812 83.7601376,109.478812 C89.3281376,103.402812 94.6241376,97.1878124 101.102138,92.3798124 C120.868138,77.3358124 154.912138,69.3258124 176.228138,65.5588124 C265.210138,46.3208124 333.578138,80.8988124 414.180138,110.065812 Z" id="hair" fill="#ECDCBF"/><path d="M300.264824,514.999146 C271.444908,517.957475 237.206802,511.144166 217.993995,487.732675 C217.419467,487.031952 217.167937,486.238551 217.152938,485.472368 C217.13626,484.620382 217.422202,483.797293 217.916337,483.156895 C218.435664,482.483847 219.174997,482.014618 220.022563,481.862398 C220.736183,481.734235 221.549772,481.816691 222.388568,482.287221 L224.15486,483.270733 C237.276321,490.517978 250.903537,496.698407 265.773803,499.343499 C281.084661,502.066522 296.67481,501.761975 311.849305,498.303574 C339.489999,492.005907 361.859818,475.940527 378.325184,454.757114 C396.699419,431.117858 407.732864,401.109793 410.545324,371.100003 C413.953335,334.731308 406.047708,298.584201 397.868463,263.370107 C389.273992,226.369129 379.879811,189.55683 368.967102,153.171812 C368.638196,152.076531 368.549815,151.051323 368.644781,150.107121 C365.426107,148.84613 362.000374,149.196196 358.590917,150.347326 C352.361263,152.450634 346.155262,157.193632 340.979537,161.108796 C339.105014,162.526774 337.3611,163.844794 335.794036,164.917168 C329.376153,169.308738 322.360001,172.468602 314.515734,172.965619 C306.356424,173.481228 298.357344,170.945476 290.947203,167.772079 C287.182629,166.159761 283.478478,164.487414 279.789159,162.821628 C269.284189,158.078466 258.903213,153.382071 247.558851,150.329885 C232.358233,146.239084 216.664318,144.224181 200.921891,144.368516 C172.826348,144.625476 144.644623,151.857285 127.425097,175.619154 C120.449982,185.244775 115.902367,196.307893 119.449013,208.187445 C121.378379,214.649794 125.019524,220.516388 128.993518,225.912105 L130.357003,227.749609 C132.536963,230.71144 134.430425,233.661356 135.001361,236.802033 C135.479644,239.433029 135.106583,242.21642 133.227756,245.267056 C132.045555,247.187472 130.540571,248.909567 129.027294,250.626056 C127.935764,251.864164 126.841105,253.099987 125.899304,254.43071 C124.001338,257.113411 122.320872,260.002803 121.002901,263.016269 C118.422043,268.915099 117.327288,275.260597 117.098312,281.660365 C116.821089,289.381252 117.906731,296.934244 118.983467,304.49805 C119.746944,309.861287 120.508775,315.229905 120.816402,320.66355 C120.870084,321.611732 120.580215,322.318162 120.174147,322.840987 C119.67725,323.480758 118.952174,323.884003 118.127005,323.995712 C117.876495,324.029625 117.617099,324.035024 117.356582,324.011965 C117.484577,324.534651 117.597584,325.059758 117.695677,325.586651 C117.174097,324.916138 116.619195,324.265468 116.033506,323.636513 C115.996111,323.61768 115.959013,323.598164 115.92224,323.577967 C115.318351,323.246281 114.806858,322.74073 114.484467,322.089845 C113.655038,321.319083 112.776878,320.587951 111.855612,319.900601 C107.061582,316.323807 101.463549,314.203568 95.8479618,314.133271 C90.434387,314.065502 85.0075466,315.908855 80.8349243,319.802002 C72.5415317,327.539189 70.1122264,340.16973 70.025537,351.014473 C69.937679,362.084577 72.4996612,375.370161 82.1516545,382.243406 C86.0234276,385.00027 90.7520396,386.656769 95.5156733,386.704701 C99.4646897,386.744338 103.243202,385.347234 106.963587,384.016255 C108.110883,383.605806 109.252727,383.197607 110.391752,382.826752 C111.685932,382.405635 112.865331,382.432405 113.893343,382.740306 C115.052066,383.087357 116.035472,383.804034 116.770164,384.75992 C117.502013,385.712107 117.981704,386.904146 118.130379,388.152481 C118.274321,389.361075 118.108665,390.616075 117.59693,391.747468 C117.468468,392.032464 117.332956,392.309098 117.191918,392.579243 L119.314896,396.06982 C127.443531,409.401176 135.714387,422.489228 146.560113,433.947752 C152.785403,440.524706 159.384065,446.731343 166.622156,452.164333 L167.666108,452.939363 C168.290786,453.397926 168.983664,453.963277 169.722636,454.56779 C171.833761,456.294785 174.364081,458.610918 176.726402,458.702114 C177.427437,458.729405 178.039351,458.641716 178.596007,458.568656 C179.941197,458.392103 181.069754,458.340429 182.178654,458.792796 C183.070592,459.156655 183.996217,459.836109 184.946764,461.239386 C185.589754,462.189157 185.919757,463.380366 185.919757,464.58899 C185.919757,465.803151 185.585789,467.01782 184.991404,467.977867 C183.761816,469.965279 182.274028,471.196069 180.659998,471.895036 C178.860478,472.674329 176.871763,472.793356 174.804602,472.407812 C169.712247,471.458041 164.074825,467.239995 160.487534,464.487244 L159.793634,463.955793 C151.844827,457.892611 144.311502,451.183932 137.689208,443.681164 C126.410996,430.904705 116.28212,415.848689 111.079427,399.397936 C107.412422,401.806783 102.881874,402.950208 98.1451385,403.130298 C91.2440463,403.392677 83.9399101,401.617185 78.5576512,399.064708 C66.6958247,393.43971 59.491158,382.800577 56.1146872,370.565771 C52.1936424,356.357675 53.4680375,340.022904 58.4318986,327.25949 C58.575778,326.888464 58.726086,326.518853 58.8803498,326.143497 C43.5985335,287.426343 38.8996548,244.433632 40.2086015,203.115315 C40.8208856,183.774991 42.1378979,163.483694 46.7006666,144.621363 C48.7457328,136.167178 52.2988856,128.116079 57.9724129,121.460316 C61.2070569,117.6649 65.1759119,114.710147 69.1629555,111.763497 C72.6161975,109.211357 76.0826624,106.66482 78.9995351,103.47826 L80.3787914,101.965186 C80.6777763,101.636117 80.9759685,101.307454 81.2736592,100.979344 C86.3106517,95.4276453 91.2145536,90.0405508 97.3270646,85.4875161 C104.415913,80.2085647 112.238579,76.0766161 120.36696,72.6449726 C137.877894,65.2548707 156.724758,60.8237145 175.368992,57.3955618 C215.705038,49.9804253 257.111231,49.6145336 296.952736,60.0377029 C315.476362,64.8831627 333.453559,71.5156777 351.400075,78.1402659 C353.066365,78.7553425 354.732396,79.3703242 356.398649,79.9837805 C370.345308,85.1189692 384.299425,90.2322507 398.253681,95.3455836 C404.738788,97.7219564 411.223925,100.09834 417.708591,102.477024 C419.115532,102.993312 420.493005,104.105437 421.277506,105.487155 C422.042901,106.835222 422.27098,108.407355 421.652944,109.972849 C417.67406,120.054017 412.653683,129.512067 406.542734,138.344347 C408.666317,139.78884 410.473469,141.709703 411.840453,143.958053 C413.569392,146.801731 414.593626,150.168239 414.663221,153.739662 C414.896133,165.700777 404.01124,173.809073 394.980617,179.673461 C394.138889,180.220613 393.305596,180.543558 392.500438,180.691739 C401.250639,214.148976 409.62704,247.719489 416.744412,281.555976 L417.233941,283.901433 C424.565981,319.313448 429.29653,355.451715 422.362278,391.334034 C416.391844,422.232721 402.521082,452.053306 380.846725,475.071622 C359.605786,497.631041 331.103479,511.833003 300.264824,514.999146 Z M110.495272,311.28776 C106.721581,299.312294 104.721776,286.282453 106.165636,274.143073 C107.074449,266.512354 109.368685,259.166257 113.104197,252.440473 C115.243764,248.588427 117.851354,245.022366 120.69718,241.663675 L121.678846,240.535639 C122.175837,239.959477 122.670183,239.429924 122.82338,238.766118 C122.912408,238.380358 122.821778,237.958487 122.587325,237.45442 C122.067809,236.338039 121.10233,235.262104 120.198494,234.211885 C119.624057,233.544414 119.063002,232.889328 118.591947,232.251975 C110.321236,221.056257 104.15332,207.727369 106.158244,193.529975 C108.114088,179.678315 117.192141,166.766674 126.856573,157.036217 C148.137108,135.610063 181.12966,130.686468 210.032243,131.868267 C226.857112,132.555657 243.654604,135.520901 259.676942,140.700615 C267.577825,143.255415 275.303028,146.366669 282.810225,149.932632 L284.472443,150.730696 C285.369437,151.165279 286.265532,151.604706 287.162239,152.044441 C293.030279,154.922063 298.920529,157.827792 305.290532,159.392298 C317.7305,162.446932 326.169144,156.013295 335.038795,149.52496 C338.078547,147.301317 341.164746,145.046915 344.445108,143.068497 L345.120241,142.669308 C351.038071,139.238766 358.116293,136.930205 364.915916,137.033742 C370.822209,137.123676 376.520654,139.009529 381.160007,143.466116 C382.1121,144.381832 382.660347,145.380833 382.917621,146.375085 C383.430885,147.094693 383.845256,147.952801 384.115145,148.966558 C385.777036,155.202318 387.431476,161.44255 389.080394,167.68468 L390.428698,166.815888 C394.422641,164.221741 398.764985,161.257116 400.725993,156.91713 C401.480708,155.2467 401.373813,152.46377 400.42261,150.417698 C400.090255,149.702791 399.650689,149.067164 399.043177,148.67041 C398.601185,148.381755 398.068421,148.246268 397.449338,148.296131 C395.944092,148.489931 394.56209,148.269767 393.390083,147.774461 C392.038644,147.203324 390.960812,146.263446 390.261458,145.130839 C389.545364,143.971121 389.218989,142.607599 389.394026,141.193532 C389.544525,139.977703 390.06775,138.707988 391.102916,137.514938 C397.916727,129.661265 403.654861,120.997901 408.015743,111.594362 L379.169174,100.921825 C368.883848,97.1183844 358.596773,93.3198176 348.304805,89.5358807 L342.670222,87.4654882 C323.955855,80.6013392 305.1338,73.8931981 285.671765,69.4739581 C246.994127,60.6920694 206.661712,62.7560598 168.091043,71.0224764 L165.761031,71.5259817 C149.575629,75.055235 133.1726,79.3253389 118.316452,86.7477419 C111.024514,90.3907808 104.093101,94.8207334 98.1406049,100.417682 C95.5118869,102.889305 93.1351621,105.595464 90.7576963,108.29795 C87.4258629,112.085275 84.090069,115.862411 80.1286906,119.052777 L76.4514661,121.997251 C70.9810797,126.405102 66.0470122,130.699703 62.9603442,137.535767 C59.7328273,144.682481 58.1923335,152.578029 56.9353671,160.270468 C53.7654597,179.648863 52.5142446,199.337569 52.6335625,218.966353 C52.8353879,251.92454 57.8426199,284.211358 64.168395,316.384422 C69.2436511,309.121098 76.3729934,303.490278 85.5234859,302.289587 C91.4891438,301.507065 97.4035979,302.619207 102.532186,305.257041 C105.49638,306.781642 108.197898,308.815777 110.495272,311.28776 L110.495272,311.28776 Z M100.908191,350.423334 C94.2261408,347.834587 87.2103416,346.986868 80.1408705,348.224739 C79.4002127,348.353738 78.6938582,348.199555 78.1001518,347.85459 C77.4982713,347.504876 77.0239213,346.951713 76.7663785,346.34094 C76.4686764,345.634927 76.4535045,344.870759 76.7162375,344.192009 C76.9441587,343.603193 77.3785316,343.031332 78.1773552,342.649383 C85.832348,338.99646 94.3407546,337.384398 102.785784,338.531399 L103.620401,338.649901 C107.937828,339.290226 114.008993,340.637776 118.561842,343.290329 C122.138795,345.374311 124.756906,348.247113 125.408189,352.000095 C125.747891,353.955595 125.262438,355.99726 124.135166,357.477244 C123.045354,358.908048 121.379373,359.861881 119.222821,359.800591 C115.418918,359.692366 113.166654,358.08482 110.456849,356.002742 C110.128101,355.750148 109.790992,355.491067 109.440555,355.228789 C106.822136,353.269712 103.960926,351.605772 100.908191,350.423334 Z" id="Ink" fill="#000"/></g></g><g id="Beard" transform="translate(527.000000, 518.000000) scale(1 1)" fill="#000"><g id="Beard/Senior Mustache" stroke="none" stroke-width="1" fill="none" fill-rule="evenodd"><path d="M245.365277,32.8226847 C231.338969,30.4572303 216.766641,33.9532014 203.242791,37.6782594 C181.759624,23.5729056 153.92278,37.8103838 138.536995,55.4330191 C133.271305,59.7696855 122.213152,65.5298866 128.039044,73.8036493 C125.830655,79.6522886 125.240063,82.4045268 129.81082,75.5670849 C155.679361,78.5452133 183.43415,72.9192677 209.035253,67.6129782 C217.752312,70.5442237 225.450269,77.3976483 235.032448,75.0503077 C244.092921,76.9767679 253.901005,78.7753656 262.080148,72.9629541 C268.30821,72.7104258 282.164331,83.8941237 281.941466,70.8883866 C280.014697,58.4218027 255.296689,37.6782594 245.365277,32.8226847 Z" id="Background" fill="#E8E1E1"/><path d="M255.8834,72.8453 C240.6554,74.5303 225.2124,72.0543 212.4614,63.2123 C211.1304,62.2893 209.8184,62.2993 208.7484,62.8403 C207.4474,62.6963 206.1164,63.2153 205.3444,64.7013 C202.1424,70.8683 191.5294,69.4943 185.6954,69.6203 C166.6124,69.9883 146.8634,68.9353 128.4984,74.7043 C146.0624,40.3703 170.3534,25.5483 207.9404,39.0273 C204.5464,41.7603 221.4824,35.3623 222.9684,35.2403 C248.9744,28.7243 270.4294,50.5363 280.9104,72.1503 C272.9814,70.2633 264.0964,71.9363 255.8834,72.8453 M292.2074,78.6883 C280.7404,52.8593 258.1304,24.4593 226.5934,28.9233 C220.1184,29.8763 213.3074,34.2993 206.7884,33.5013 C187.9134,26.5303 172.3334,22.9883 153.4304,34.2603 C145.4104,34.8593 100.2784,90.7363 121.7254,86.1743 C148.0514,71.0563 193.8254,85.2963 210.1734,71.7743 C242.2684,92.8433 268.3644,69.9563 286.4524,83.1263 C289.5974,86.0113 294.0084,82.4183 292.2074,78.6883" id="Ink" fill="#000"/></g></g><g id="Face" transform="translate(563.000000, 366.000000) scale(1 1)" fill="#000"><g id="Face/Cheeky" stroke="none" stroke-width="1" fill="none" fill-rule="evenodd"><path d="M166.9438,221.352 C168.4778,218.685 172.0098,216.214 175.2418,216.593 C189.7208,218.291 189.6958,235.845 184.1048,246.093 C179.1478,255.18 168.8888,260.514 158.6208,259.735 C147.8338,258.916 138.6428,252.574 134.5978,242.483 C131.9228,235.808 130.6868,223.485 137.8028,219 C137.9348,218.916 138.1528,218.937 138.2578,219.058 C141.6698,223.027 141.8038,228.986 144.7908,233.405 C147.5688,237.515 151.8848,240.909 156.9408,241.433 C160.7168,241.825 164.5368,240.463 166.0138,237.073 C166.812891,235.239364 166.721899,234.243744 166.421516,232.981708 L166.148563,231.885055 C165.202801,228.043565 164.778057,225.118714 166.9438,221.352 Z M170.814304,144.367155 C178.365682,148.9572 189.871664,159.660291 181.748119,171.039573 C172.185929,181.073062 158.418535,169.568982 151.634201,164.366134 C145.343449,160.333898 138.275437,170.704507 144.112,175.412823 C193.135736,211.708059 213.030606,145.567387 174.633685,138.970386 C170.406047,138.243425 168.835891,142.947174 170.814304,144.367155 Z M91.0715,112.8926 C95.7065,105.9386 106.2865,106.9626 108.8395,115.2146 C110.2225,119.6846 108.3125,123.7026 108.4115,128.1666 C108.4945,131.9376 108.2475,136.1396 107.0915,139.7916 C104.4555,148.1196 96.9655,154.0016 88.1045,153.7576 C79.2725,153.5146 71.4935,147.9246 67.7945,140.0516 C64.0825,132.1486 64.8685,123.9696 67.5785,115.9336 C67.7085,115.5476 68.2145,115.3606 68.5195,115.6856 C71.7228333,119.089767 74.0678333,122.683517 76.4943148,126.495785 L78.9809333,130.40279 C80.8812656,133.344819 83.6431037,137.103142 87.1914615,136.867072 L87.7238987,136.814547 C88.7099852,136.729908 88.5588846,136.9256 89.3195,135.5816 C89.6715,134.9596 89.6075,133.8036 89.7775,133.0696 L89.8365,132.8216 L89.8365,132.8216 L89.8043384,132.68798 C89.7292832,132.332503 89.6547866,131.66266 89.5942529,130.500284 L89.5815,130.2436 C89.3245,124.8066 87.7875,117.8196 91.0715,112.8926 Z M208.5632,117.5221 C207.7322,108.6281 220.2362,106.6531 224.3932,113.2341 C226.561303,116.665997 227.192546,120.977055 227.67203,125.0615 L227.8962,127.0001 C228.3882,131.1951 228.5832,135.5591 226.7622,139.4721 C223.8942,145.6351 217.6572,148.8931 210.9292,148.3771 C204.5042,147.8831 198.6422,144.1581 195.5522,138.5031 C192.7972,133.4571 190.0582,123.6051 193.4042,118.3421 C193.6062,118.0231 194.0102,117.9821 194.2872,118.2281 C197.4492,121.0351 197.9642,126.1551 199.8442,129.8121 C201.7832,133.5841 204.7242,137.2601 209.1812,137.8331 C213.4452,138.3811 215.0742,136.0521 213.9862,131.9871 C212.5832,126.7391 209.0912,123.1691 208.5632,117.5221 Z M94.4489,60.0159 L96.4937284,59.2327124 C103.499922,56.5860716 113.118768,53.5268605 118.8149,59.2239 C122.3289,62.7369 122.9979,67.9119 120.4899,72.1989 C117.4509,77.3919 111.9999,77.5199 106.7359,78.2849 C100.7489,79.1549 94.6599,80.8089 89.0859,83.1669 C82.8069,85.8239 76.9799,89.1359 71.2709,92.8349 C65.8449,96.3499 60.4379,102.0949 53.9429,103.1779 C53.6779,103.2219 53.3769,103.1079 53.3079,102.8169 C51.8329,96.4669 55.9319,90.2179 59.5899,85.2639 C64.0159,79.2659 69.3789,74.3429 75.3729,69.9289 C81.1579,65.6679 87.7679,62.5889 94.4489,60.0159 Z M221.7162,82.5925 L222.340762,82.4830541 C226.589355,81.7757704 230.439386,81.9386395 233.6412,85.3035 C236.0852,87.8705 237.0272,91.1975 235.8622,94.5915 C234.7872,97.7225 232.3832,100.9035 228.8942,101.5595 C217.1152,103.7755 204.0682,103.4095 192.2302,101.7315 C186.814067,100.963367 181.349151,100.023624 176.073673,98.5415284 L173.646557,97.8379125 C169.242357,96.5798884 164.200291,95.2655909 161.0012,92.0265 C159.8512,90.8625 160.5142,89.1965 161.8902,88.6575 C167.4722,86.4715 175.1232,87.6345 181.0752,87.4635 C187.9992,87.2655 194.9342,86.7465 201.8252,86.0315 C208.5592,85.3315 215.0752,83.8105 221.7162,82.5925 Z" id="Ink" fill="#000"/></g></g><g id="Mask" transform="translate(428.000000, 479.000000) scale(1 1)" fill="#000"><g id="Mask/None" stroke="none" stroke-width="1" fill="none" fill-rule="evenodd" fill-opacity="0"/></g><g id="Accessories" transform="translate(451.000000, 421.000000) scale(1 1)" fill="#000"><g id="Accessories/Glasses 3" stroke="none" stroke-width="1" fill="none" fill-rule="evenodd"><path d="M367.1336,98.3183 C360.4006,107.3633 347.9186,110.2443 336.4056,109.2493 C311.5746,106.8593 303.7596,78.6583 302.9456,56.7393 C319.5966,61.4233 301.5376,28.2493 358.4566,24.6013 C378.5216,22.9293 372.9896,35.0473 381.8546,43.9013 C381.6726,62.4833 378.5796,82.6743 367.1336,98.3183 M248.8626,76.9663 C234.2026,145.6193 153.9246,129.2893 145.4916,67.4033 C153.2786,61.9073 151.2276,48.3363 160.9016,43.4193 C176.2336,33.6233 195.3996,34.0423 212.8106,34.2723 C235.0656,35.8013 241.4076,45.0203 252.8396,55.0783 C252.2896,61.7963 250.7036,69.7583 248.8626,76.9663 M398.9346,13.2313 C398.1116,13.0943 397.2876,12.9653 396.4636,12.8443 C395.8206,12.4793 395.0656,12.1983 394.1876,12.0293 C392.1826,11.5203 390.1916,11.1773 388.2036,10.9923 C359.6716,4.5713 293.6646,13.6883 290.9406,38.0363 C281.8546,41.0693 273.9926,38.3533 263.4616,38.6233 C255.4456,5.1183 116.8626,9.8473 110.1976,30.0473 C110.1726,30.0403 110.1476,30.0343 110.1216,30.0263 C103.7176,28.0443 94.2766,28.5223 86.9466,28.2083 C71.2956,27.8803 55.6266,29.2753 40.3136,32.5763 C11.6386,37.1333 -27.4964,42.4683 -7.5534,78.2763 C-7.5494,78.2823 -7.5464,78.2893 -7.5414,78.2953 L-7.5384,78.2923 C-4.1014,81.8153 1.7316,78.9783 1.9486,74.2093 C-4.7564,57.2453 10.3876,55.2083 22.0396,50.3333 C51.0326,39.9173 80.5506,38.4733 110.5366,41.6953 C112.7926,44.3513 116.2156,46.6673 119.8336,47.8793 C139.8826,51.2073 129.3166,66.0793 141.9896,68.2423 C139.6616,120.0843 202.6026,148.3823 239.0716,114.3033 C253.6326,100.0673 257.1036,78.9783 260.4796,59.9693 C262.2646,59.5683 263.3996,58.5923 264.0626,57.3003 C268.3556,53.0143 271.0526,49.0563 279.5416,47.8793 C288.0306,46.7033 294.5656,49.0643 295.4496,49.7873 C295.6726,50.2363 295.9116,50.6863 296.1896,51.1363 C296.5776,51.8073 297.1056,52.3423 297.7056,52.7633 C289.3226,104.3873 329.3996,137.0353 369.8586,110.2603 C387.4386,93.7233 391.1536,68.4053 391.8876,45.8073 C394.2706,44.3693 395.7796,41.5823 394.9546,38.0783 C393.8176,33.2483 396.4836,29.0663 400.7296,26.9663 C406.2466,24.2393 405.2706,14.2803 398.9346,13.2313" id="Ink" fill="#000"/></g></g></g></svg>